<?xml version="1.0" encoding="utf-8"?>
<!-- Generator: Adobe Illustrator 19.1.0, SVG Export Plug-In . SVG Version: 6.00 Build 0)  -->
<!DOCTYPE svg PUBLIC "-//W3C//DTD SVG 1.1//EN" "http://www.w3.org/Graphics/SVG/1.1/DTD/svg11.dtd">
<svg version="1.1" id="Layer_1" xmlns="http://www.w3.org/2000/svg" xmlns:xlink="http://www.w3.org/1999/xlink" x="0px" y="0px"
	 viewBox="-42 58 255 285" enable-background="new -42 58 255 285" xml:space="preserve">
<metadata><?xpacket begin="﻿" id="W5M0MpCehiHzreSzNTczkc9d"?>
<x:xmpmeta xmlns:x="adobe:ns:meta/" x:xmptk="Adobe XMP Core 5.6-c067 79.157747, 2015/03/30-23:40:42        ">
   <rdf:RDF xmlns:rdf="http://www.w3.org/1999/02/22-rdf-syntax-ns#">
      <rdf:Description rdf:about=""/>
   </rdf:RDF>
</x:xmpmeta>
                                                                                                    
                                                                                                    
                                                                                                    
                                                                                                    
                                                                                                    
                                                                                                    
                                                                                                    
                                                                                                    
                                                                                                    
                                                                                                    
                                                                                                    
                                                                                                    
                                                                                                    
                                                                                                    
                                                                                                    
                                                                                                    
                                                                                                    
                                                                                                    
                                                                                                    
                                                                                                    
                           
<?xpacket end="w"?></metadata>
<polygon fill="#A8BC9B" points="-24.4,294.1 -24.4,108.8 86.1,61.4 196.2,108.8 196.2,294.1 85.8,341.6 "/>
<polygon fill="#A8BC9B" points="209.8,225.8 -39.2,225.8 -36.2,201.4 -39.2,177.1 209.8,177.1 206.8,201.4 "/>
<g>
	<polygon fill="#414042" points="85.8,330.7 -14.4,287.5 -14.4,225.8 -8.2,225.8 -8.2,283.4 85.8,323.9 180.3,283.4 180.3,225.8 
		186.5,225.8 186.5,287.5 	"/>
</g>
<g>
	<polygon fill="#414042" points="86.1,72.3 186.2,115.4 186.2,177.1 180,177.1 180,119.5 86.1,79 -8.5,119.5 -8.5,177.1 
		-14.7,177.1 -14.7,115.4 	"/>
</g>
<g>
	<g>
		<path fill="#414042" d="M-16.1,211.9c-6.3,0-11.5-5.2-11.5-11.5s5.2-11.5,11.5-11.5c3.4,0,6.3,1.5,8.7,4.1l-2.9,3.5
			c-1.7-1.6-3.5-2.7-5.7-2.7c-3.6,0-6.6,3-6.6,6.6s2.9,6.6,6.6,6.6c2.1,0,4.2-1,5.7-2.7l2.9,3.8C-9.5,210.4-12.7,211.9-16.1,211.9z"
			/>
	</g>
	<g>
		<path fill="#414042" d="M22.8,211.7l-1.5-3.8h-8.2l-1.6,3.9H6.1l9-22.6H19l9.2,22.6L22.8,211.7z M19.3,202.9l-2.1-5.4l-2.1,5.4
			H19.3z"/>
	</g>
	<g>
		<path fill="#414042" d="M65.2,211.7h-5v-10.9l-5,10.1h-2.7l-5-10.1v10.9h-4.9v-22.6h4.1l7.2,14.7l7.2-14.7h4.1
			C65.2,189.1,65.2,211.7,65.2,211.7z"/>
	</g>
	<g>
		<path fill="#414042" d="M94.6,196.1c0,3.9-3.1,7.1-7.1,7.1h-2.2v8.5h-4.9v-22.6h7.2C91.4,189.1,94.6,192.3,94.6,196.1z
			 M89.6,196.1c0-1.1-0.9-2-2.1-2h-2.2v4.2h2.2C88.7,198.2,89.6,197.3,89.6,196.1z"/>
	</g>
	<g>
		<path fill="#414042" d="M108.9,211.7v-22.6h12.5v4.9h-7.5v4.2h7v4.3h-7v9.1L108.9,211.7L108.9,211.7z"/>
	</g>
	<g>
		<path fill="#414042" d="M135.7,211.7v-22.6h4.9v22.6H135.7z"/>
	</g>
	<g>
		<path fill="#414042" d="M161.4,203.2h-0.7v8.5h-4.9v-22.6h7.2c3.9,0,7,3.1,7,7c0,2.7-1.5,5-3.6,6.2l5.6,9.4h-5.6L161.4,203.2z
			 M160.7,198.2h2.2c1.2,0,2.1-0.9,2.1-2.1c0-1.1-0.9-2-2.1-2h-2.2V198.2z"/>
	</g>
	<g>
		<path fill="#414042" d="M199.2,211.7h-13v-22.6h13v4.9h-8.1v4.2h7.5v4.3h-7.5v4.2h8.1V211.7z"/>
	</g>
</g>
<g>
	<g>
		<path fill="#414042" d="M34.7,232.8c-3.5,0-6.4-2.9-6.4-6.4s2.9-6.4,6.4-6.4c1.9,0,3.5,0.8,4.8,2.3l-1.6,2c-1-0.9-1.9-1.5-3.2-1.5
			c-2,0-3.7,1.7-3.7,3.7s1.6,3.7,3.7,3.7c1.2,0,2.3-0.5,3.2-1.5l1.6,2.1C38.4,232,36.6,232.8,34.7,232.8z"/>
	</g>
	<g>
		<path fill="#414042" d="M59.6,226.4c0,3.5-2.9,6.4-6.4,6.4s-6.4-2.9-6.4-6.4s2.9-6.4,6.4-6.4C56.8,220,59.6,222.8,59.6,226.4z
			 M49.6,226.4c0,2,1.6,3.7,3.6,3.7s3.7-1.7,3.7-3.7s-1.7-3.7-3.7-3.7S49.6,224.3,49.6,226.4z"/>
	</g>
	<g>
		<path fill="#414042" d="M80.4,226.4c0,3.5-2.9,6.4-6.4,6.4s-6.4-2.9-6.4-6.4s2.9-6.4,6.4-6.4C77.6,220,80.4,222.8,80.4,226.4z
			 M70.4,226.4c0,2,1.6,3.7,3.6,3.7s3.7-1.7,3.7-3.7s-1.7-3.7-3.7-3.7S70.4,224.3,70.4,226.4z"/>
	</g>
	<g>
		<path fill="#414042" d="M94.6,232.7l-2.8-5l-0.3,0.4v4.6h-2.7v-12.6h2.7v3.6l2.6-3.6h3.2l-3.7,5.1l4.3,7.5H94.6z"/>
	</g>
	<g>
		<path fill="#414042" d="M113.3,232.7H106v-12.6h7.2v2.8h-4.5v2.3h4.2v2.4h-4.2v2.3h4.5v2.8H113.3z"/>
	</g>
	<g>
		<path fill="#414042" d="M124.8,227.9h-0.4v4.8h-2.8v-12.6h4c2.2,0,3.9,1.8,3.9,3.9c0,1.5-0.8,2.8-2,3.4l3.1,5.3h-3.1L124.8,227.9z
			 M124.4,225.1h1.2c0.6,0,1.2-0.5,1.2-1.2c0-0.6-0.5-1.1-1.2-1.1h-1.2V225.1z"/>
	</g>
	<g>
		<path fill="#414042" d="M145.1,227.1v5.6h-2.7v-5.6l-4.1-7h3.3l2.1,3.8l2.1-3.8h3.3L145.1,227.1z"/>
	</g>
</g>
<g>
	<g>
		<path fill="#414042" d="M76.6,174.6h-3.1v-5.7h3.1v1h-2.1v1.4h2v0.9h-2v1.4h2.1V174.6z"/>
	</g>
	<g>
		<path fill="#414042" d="M82,174.7c-0.6,0-1.2-0.3-1.7-0.7l0.5-0.9c0.4,0.3,0.8,0.5,1.2,0.5c0.4,0,0.7-0.2,0.7-0.6
			c0-0.5-0.6-0.7-1.2-1s-1.1-0.8-1.1-1.6c0-0.9,0.8-1.5,1.8-1.5c0.5,0,0.9,0.2,1.2,0.4l-0.5,0.8c-0.2-0.1-0.5-0.3-0.8-0.3
			c-0.4,0-0.7,0.3-0.7,0.6c0,0.4,0.5,0.6,0.9,0.8c0.5,0.2,1.4,0.7,1.4,1.8C83.7,173.9,83,174.7,82,174.7z"/>
	</g>
	<g>
		<path fill="#414042" d="M90.7,169.9h-1.3v4.7h-1v-4.7h-1.3v-1h3.5v1H90.7z"/>
	</g>
	<g>
		<path fill="#414042" d="M98.9,171.8c0,1.6-1.3,2.8-2.8,2.8h-1.7v-5.7h1.7C97.6,168.9,98.9,170.2,98.9,171.8z M97.8,171.8
			c0-1-0.8-1.8-1.8-1.8h-0.7v3.7H96C97,173.6,97.8,172.8,97.8,171.8z"/>
	</g>
</g>
<g>
	<g>
		<path fill="#414042" d="M45.4,134.4H39V132l3.6-4.1c0.6-0.7,0.6-1.7-0.1-2.2c-0.6-0.5-1.6-0.3-2.2,0.5l-1.6-1.3
			c1.3-1.9,3.7-2.2,5.3-0.9c1.6,1.3,1.7,3.7,0.3,5.3L42,132h3.3L45.4,134.4L45.4,134.4z"/>
	</g>
	<g>
		<path fill="#414042" d="M56.5,134.5c-2,0-3.7-1.7-3.7-3.7V127c0-2,1.7-3.7,3.7-3.7c2.1,0,3.7,1.7,3.7,3.7v3.8
			C60.2,132.8,58.6,134.5,56.5,134.5z M55.2,127v3.8c0,0.7,0.6,1.3,1.3,1.3s1.3-0.6,1.3-1.3V127c0-0.7-0.6-1.3-1.3-1.3
			S55.2,126.3,55.2,127z"/>
	</g>
	<g>
		<path fill="#414042" d="M112.5,134.4h-2.4v-8.9h-1.9v-2.1h4.3L112.5,134.4L112.5,134.4z"/>
	</g>
	<g>
		<path fill="#414042" d="M127.4,130.5c0,2.2-1.8,4-3.9,4c-1.4,0-2.5-0.8-3.3-1.7l1.9-1.6c0.3,0.4,0.8,0.8,1.4,0.8
			c0.8,0,1.5-0.6,1.5-1.4s-0.6-1.5-1.5-1.5c-0.4,0-0.7,0.1-1,0.3l-1.9-1.4l0.7-4.6h5.2v2.4h-3.2l-0.1,0.9c0.1,0,0.2,0,0.3,0
			C125.7,126.6,127.4,128.4,127.4,130.5z"/>
	</g>
</g>
<g>
	<path fill="#414042" d="M87.3,110.8l2.3-5c0.1-0.1,0-0.3-0.1-0.4l-1.5-0.7c-0.1-0.1-0.3,0-0.4,0.1l-1.6,3.3c-0.1,0.1-0.2,0.1-0.2,0
		l-1.6-3.3c-0.1-0.1-0.2-0.2-0.4-0.1l-1.5,0.7c-0.1,0.1-0.2,0.2-0.1,0.4l2.3,5c0.1,0.1,0.1,0.4,0,0.5l-21.9,47.1
		c-0.1,0.1,0,0.3,0.2,0.3h46.5c0.2,0,0.2-0.1,0.2-0.3l-22.1-47.1C87.3,111.2,87.3,110.9,87.3,110.8z M86.8,134.5l1.5,1.7
		c0.1,0.1,0.3,0.1,0.4,0l2.2-2.4c0.1-0.1,0.3-0.1,0.4,0l2.2,2.4c0.1,0.1,0.3,0.1,0.4,0l1.5-1.6c0.1-0.1,0.3-0.1,0.3,0.1l10.3,21.5
		c0.1,0.1,0,0.3-0.2,0.3H95.5c-0.2,0-0.4-0.1-0.5-0.1c-7.7-4.6-8.4-16.9-8.4-21.7C86.6,134.4,86.7,134.4,86.8,134.5z M86.1,113.9
		l8.8,18.7c0.1,0.1,0,0.4-0.1,0.5l-0.9,0.9c-0.1,0.1-0.3,0.1-0.4,0l-2.2-2.4c-0.1-0.1-0.3-0.1-0.4,0l-2.2,2.4
		c-0.1,0.1-0.3,0.1-0.4,0l-2.2-2.4c-0.1-0.1-0.3-0.1-0.4,0l-2.2,2.4c-0.1,0.1-0.3,0.1-0.4,0l-2.2-2.4c-0.1-0.1-0.3-0.1-0.4,0
		l-2.2,2.4c-0.1,0.1-0.3,0.1-0.4,0l-0.7-0.8c-0.1-0.1-0.1-0.3-0.1-0.5l8.8-18.8C85.9,113.8,86.1,113.8,86.1,113.9z M76.5,134.6
		l1.4,1.5c0.1,0.1,0.3,0.1,0.4,0l2.2-2.4c0.1-0.1,0.3-0.1,0.4,0l2.2,2.4c0.1,0.1,0.3,0.1,0.4,0l1.1-1.2c0.1-0.1,0.2-0.1,0.2,0.1
		l-3.4,21.2c0,0.2-0.2,0.3-0.3,0.3H66.2c-0.2,0-0.2-0.1-0.2-0.3l10.1-21.5C76.2,134.5,76.3,134.5,76.5,134.6z"/>
</g>
<g>
	<g>
		<path fill="#414042" d="M105.9,269.1v-4.4h2.4v0.8h-1.6v1.1h1.5v0.7h-1.5v1.9h-0.8V269.1z"/>
	</g>
	<g>
		<path fill="#414042" d="M115.6,266.9c0,1.2-1,2.3-2.3,2.3c-1.2,0-2.3-1-2.3-2.3c0-1.2,1-2.3,2.3-2.3
			C114.5,264.6,115.6,265.6,115.6,266.9z M111.8,266.9c0,0.8,0.6,1.5,1.5,1.5c0.8,0,1.5-0.7,1.5-1.5s-0.7-1.5-1.5-1.5
			S111.8,266.1,111.8,266.9z"/>
	</g>
	<g>
		<path fill="#414042" d="M119.6,267.3h-0.3v1.8h-0.8v-4.4h1.4c0.7,0,1.3,0.6,1.3,1.3c0,0.6-0.3,1-0.8,1.2l1.1,1.9h-0.9L119.6,267.3
			z M119.3,266.5h0.6c0.3,0,0.5-0.2,0.5-0.6c0-0.3-0.2-0.5-0.5-0.5h-0.6V266.5z"/>
	</g>
	<g>
		<path fill="#414042" d="M128.2,269.1h-0.6l-0.7-2.7l-0.7,2.7h-0.6l-1.2-4.4h0.9l0.8,2.7l0.7-2.7h0.5l0.7,2.7l0.8-2.7h0.9
			L128.2,269.1z"/>
	</g>
	<g>
		<path fill="#414042" d="M135,269.1l-0.3-0.8h-1.8l-0.3,0.8h-0.9l1.8-4.4h0.6l1.8,4.4H135z M134.4,267.5l-0.6-1.5l-0.6,1.5H134.4z"
			/>
	</g>
	<g>
		<path fill="#414042" d="M139.9,267.3h-0.3v1.8h-0.8v-4.4h1.4c0.7,0,1.3,0.6,1.3,1.3c0,0.6-0.3,1-0.8,1.2l1.1,1.9h-0.9L139.9,267.3
			z M139.6,266.5h0.6c0.3,0,0.5-0.2,0.5-0.6c0-0.3-0.2-0.5-0.5-0.5h-0.6V266.5z"/>
	</g>
	<g>
		<path fill="#414042" d="M148.2,266.9c0,1.2-1,2.2-2.2,2.2h-1.3v-4.4h1.3C147.2,264.7,148.2,265.7,148.2,266.9z M147.4,266.9
			c0-0.8-0.6-1.4-1.4-1.4h-0.6v2.9h0.6C146.8,268.3,147.4,267.7,147.4,266.9z"/>
	</g>
</g>
<g>
	<rect x="22.1" y="257.8" fill="#414042" width="44.8" height="1"/>
</g>
<g>
	<rect x="22.1" y="275.1" fill="#414042" width="44.8" height="1"/>
</g>
<g>
	<rect x="104.6" y="257.8" fill="#414042" width="44.8" height="1"/>
</g>
<g>
	<rect x="104.6" y="275.1" fill="#414042" width="44.8" height="1"/>
</g>
<g>
	<g>
		<path fill="#414042" d="M31.7,267.3h-0.3v1.8h-0.8v-4.4H32c0.7,0,1.3,0.6,1.3,1.3c0,0.6-0.3,1-0.8,1.2l1.1,1.9h-0.9L31.7,267.3z
			 M31.4,266.5H32c0.3,0,0.5-0.2,0.5-0.6c0-0.3-0.2-0.5-0.5-0.5h-0.6V266.5z"/>
	</g>
	<g>
		<path fill="#414042" d="M38.9,269.1h-2.5v-4.4h2.5v0.8h-1.7v1.1h1.6v0.7h-1.6v1.1h1.7V269.1z"/>
	</g>
	<g>
		<path fill="#414042" d="M45.1,269.1l-0.3-0.8H43l-0.3,0.8h-0.9l1.8-4.4h0.6l1.8,4.4H45.1z M44.4,267.5l-0.6-1.5l-0.6,1.5H44.4z"/>
	</g>
	<g>
		<path fill="#414042" d="M52.4,266.9c0,1.2-1,2.2-2.2,2.2h-1.3v-4.4h1.3C51.4,264.7,52.4,265.7,52.4,266.9z M51.6,266.9
			c0-0.8-0.6-1.4-1.4-1.4h-0.6v2.9h0.6C51,268.3,51.6,267.7,51.6,266.9z"/>
	</g>
	<g>
		<path fill="#414042" d="M57.1,267.1v2h-0.8v-2l-1.4-2.4h1l0.8,1.5l0.9-1.5h1L57.1,267.1z"/>
	</g>
</g>
<g>
	<g>
		<path fill="#414042" d="M91.9,271.1l1.8,2.2l-3.5,2.9l-1-1.2c-1.3,0.9-2.9,1.5-4.5,1.5c-4,0-7.3-3.3-7.3-7.3c0-2.1,0.9-4,2.3-5.4
			c-0.8-1-1.2-2.3-1.2-3.7c0-3.4,2.8-6.2,6.2-6.2c3.4,0,6.3,2.8,6.3,6.2c0,2.5-1.5,4.7-3.7,5.7l1.4,1.6l1.4-2.9l4.1,2L91.9,271.1z
			 M86.3,271.5l-3.6-4.3c-0.5,0.5-0.7,1.2-0.7,1.9c0,1.8,1.4,2.7,2.9,2.7C85.3,271.9,85.8,271.8,86.3,271.5z M83.1,260
			c0,1,0.7,1.7,1.7,1.7s1.7-0.8,1.7-1.7s-0.7-1.7-1.7-1.7C83.8,258.3,83.1,259.1,83.1,260z"/>
	</g>
</g>
</svg>
