<?xml version="1.0" encoding="utf-8"?>
<!-- Generator: Adobe Illustrator 19.1.0, SVG Export Plug-In . SVG Version: 6.00 Build 0)  -->
<!DOCTYPE svg PUBLIC "-//W3C//DTD SVG 1.1//EN" "http://www.w3.org/Graphics/SVG/1.1/DTD/svg11.dtd">
<svg version="1.1" id="Layer_1" xmlns="http://www.w3.org/2000/svg" xmlns:xlink="http://www.w3.org/1999/xlink" x="0px" y="0px"
	 viewBox="0 0 400 500" enable-background="new 0 0 400 500" xml:space="preserve">
<metadata><?xpacket begin="﻿" id="W5M0MpCehiHzreSzNTczkc9d"?>
<x:xmpmeta xmlns:x="adobe:ns:meta/" x:xmptk="Adobe XMP Core 5.6-c067 79.157747, 2015/03/30-23:40:42        ">
   <rdf:RDF xmlns:rdf="http://www.w3.org/1999/02/22-rdf-syntax-ns#">
      <rdf:Description rdf:about=""/>
   </rdf:RDF>
</x:xmpmeta>
                                                                                                    
                                                                                                    
                                                                                                    
                                                                                                    
                                                                                                    
                                                                                                    
                                                                                                    
                                                                                                    
                                                                                                    
                                                                                                    
                                                                                                    
                                                                                                    
                                                                                                    
                                                                                                    
                                                                                                    
                                                                                                    
                                                                                                    
                                                                                                    
                                                                                                    
                                                                                                    
                           
<?xpacket end="w"?></metadata>
<g>
	<path fill="#4D5147" d="M203,498L4.8,392.3V2.6h390.4v389.6L203,498z M21.6,382.2l181.3,96.7l175.5-96.6V19.4H21.6V382.2z"/>
</g>
<g>
	<g>
		<polygon fill="#FFFFFF" points="255.3,294.1 203,205.7 150.6,294.1 		"/>
	</g>
</g>
<g>
	<path fill="#231F20" d="M276.3,305.1H129.7l65.7-110.8l-23.5-39.7l11.3-6.7l19.8,33.5l19.8-33.5l11.3,6.7l-23.5,39.7L276.3,305.1z
		 M152.7,292h100.5L203,207.2L152.7,292z"/>
</g>
<g>
	<g>
		<polygon fill="#231F20" points="227.9,294.3 203,252.3 178,294.3 		"/>
	</g>
</g>
<g>
	<path fill="#231F20" d="M129.9,86.8c-4.8,2.4-10.8,0.4-13.2-4.4c-2.4-4.8-0.4-10.8,4.4-13.2c2.6-1.3,5.4-1.3,8.2-0.2l-0.9,3.8
		c-1.9-0.6-3.7-0.8-5.4,0.1c-2.8,1.4-3.9,4.8-2.5,7.5c1.4,2.8,4.8,3.9,7.5,2.5c1.6-0.8,2.8-2.3,3.3-4.2l3.7,1.8
		C134.4,83.1,132.5,85.5,129.9,86.8z"/>
	<path fill="#231F20" d="M157.3,76l-2.2-2.7l-6.7,2.1l-0.3,3.6l-4.4,1.4l1.5-20.8l3.2-1l13.3,16.1L157.3,76z M152.1,69.7l-3.1-3.9
		l-0.3,5L152.1,69.7z"/>
	<path fill="#231F20" d="M189.1,70l-4.2,0.6l-1.3-9.3l-3,9.2l-2.3,0.3l-5.4-8l1.3,9.3l-4.2,0.6l-2.7-19.2l3.4-0.5l7.9,11.6l4.3-13.4
		l3.5-0.5L189.1,70z"/>
	<path fill="#231F20" d="M210.6,56.5c-0.1,3.3-2.8,6-6.1,5.9l-1.9,0l-0.1,7.3l-4.2-0.1l0.3-19.3l6.1,0.1
		C208,50.4,210.7,53.2,210.6,56.5z M206.4,56.4c0-1-0.8-1.8-1.8-1.8l-1.9,0l-0.1,3.6l1.9,0C205.5,58.2,206.4,57.4,206.4,56.4z"/>
	<path fill="#231F20" d="M219,70.4l2.4-19.2l10.6,1.3l-0.5,4.2l-6.4-0.8l-0.4,3.6l5.9,0.7l-0.5,3.7l-5.9-0.7l-1,7.8L219,70.4z"/>
	<path fill="#231F20" d="M238.2,73.4l4.3-18.9l4.1,0.9l-4.3,18.9L238.2,73.4z"/>
	<path fill="#231F20" d="M258.2,71.4l-0.5-0.2l-2.4,6.9l-4-1.4l6.3-18.3l5.8,2c3.2,1.1,4.8,4.5,3.7,7.6c-0.7,2.1-2.6,3.6-4.7,4
		l1.9,9.2l-4.6-1.6L258.2,71.4z M259,67.2l1.8,0.6c0.9,0.3,2-0.1,2.3-1.1c0.3-0.9-0.2-1.9-1.1-2.2l-1.8-0.6L259,67.2z"/>
	<path fill="#231F20" d="M282.1,89.6l-10-5l8.6-17.3l10,5l-1.9,3.8l-6.2-3.1l-1.6,3.2l5.8,2.9l-1.7,3.3l-5.8-2.9l-1.6,3.2l6.2,3.1
		L282.1,89.6z"/>
</g>
<g>
	<path fill="#231F20" d="M126.7,404.7c-4.9-2.3-7.1-8.1-4.8-13c2.3-4.9,8.1-7.1,13-4.8c2.6,1.2,4.3,3.4,5.3,6.3l-3.5,1.7
		c-0.8-1.9-1.7-3.4-3.5-4.2c-2.8-1.3-6.2,0-7.5,2.8c-1.3,2.8-0.1,6.2,2.8,7.5c1.6,0.8,3.6,0.7,5.4,0l0.9,4
		C132.4,405.9,129.4,405.9,126.7,404.7z"/>
	<path fill="#231F20" d="M164.5,407.3c-1.5,5.2-6.9,8.3-12.1,6.8c-5.2-1.5-8.3-6.9-6.8-12.1c1.5-5.2,6.9-8.3,12.1-6.8
		C163,396.7,166,402.1,164.5,407.3z M149.7,403.1c-0.8,3,0.8,6.1,3.8,6.9c2.9,0.8,6.1-0.9,6.9-3.9c0.8-2.9-0.9-6.1-3.9-6.9
		C153.6,398.4,150.6,400.1,149.7,403.1z"/>
	<path fill="#231F20" d="M193.9,411.3c-0.6,5.4-5.4,9.3-10.8,8.7c-5.4-0.6-9.3-5.4-8.7-10.8c0.6-5.4,5.4-9.3,10.8-8.7
		C190.6,401.1,194.5,405.9,193.9,411.3z M178.6,409.7c-0.3,3.1,1.8,5.8,4.9,6.2c3,0.3,5.9-1.9,6.2-5c0.3-3-1.9-5.9-5-6.2
		C181.6,404.4,178.9,406.6,178.6,409.7z"/>
	<path fill="#231F20" d="M213.2,420.7l-4.6-7.5l-0.4,0.7l0.3,7.1l-4.2,0.2l-0.8-19.3l4.2-0.2l0.2,5.5l3.8-5.7l4.9-0.2l-5.4,8.1
		l7.1,11.2L213.2,420.7z"/>
	<path fill="#231F20" d="M239.8,417.4l-11,1.9l-3.2-19.1l11-1.9l0.7,4.2l-6.8,1.2l0.6,3.5l6.3-1.1l0.6,3.7l-6.3,1.1l0.6,3.5l6.8-1.2
		L239.8,417.4z"/>
	<path fill="#231F20" d="M252.8,406.5l-0.6,0.2l2.1,7l-4.1,1.2l-5.6-18.5l5.9-1.8c3.2-1,6.5,0.8,7.5,4c0.7,2.2,0,4.4-1.4,6l6.9,6.4
		l-4.6,1.4L252.8,406.5z M251,402.7l1.8-0.6c1-0.3,1.5-1.2,1.2-2.2c-0.3-0.9-1.3-1.4-2.2-1.2l-1.8,0.6L251,402.7z"/>
	<path fill="#231F20" d="M279,395.2l3.6,7.8l-3.8,1.8l-3.6-7.8l-10.2-7.2l4.6-2.1l5.4,4l0.5-6.7l4.6-2.2L279,395.2z"/>
</g>
<g>
	<path fill="#4D5147" d="M203,390.2c-47.5,0-91.7-21.4-121.1-58.8C60.2,304,48.8,271,48.8,236c0-35,11.4-68,33-95.4
		c29.5-37.4,73.6-58.8,121.1-58.8c47.5,0,91.7,21.4,121.1,58.8l-26.4,20.8c-23.1-29.2-57.6-46-94.7-46s-71.7,16.8-94.7,46
		c-16.9,21.4-25.8,47.2-25.8,74.6c0,27.4,8.9,53.2,25.8,74.6c23,29.2,57.6,46,94.7,46s71.7-16.8,94.7-46l26.4,20.8
		C294.6,368.7,250.5,390.2,203,390.2z"/>
</g>
<g>
	<path d="M150.9,201.2h-5.3V192h5.3v2h-3.3v1.7h3.1v1.8h-3.1v1.7h3.3V201.2z"/>
	<path d="M156.9,201.3c-1,0-1.9-0.4-2.9-1.2l1-1.8c0.6,0.5,1.3,0.8,1.8,0.8c0.5,0,0.9-0.3,0.9-0.7c0-0.7-1-1-1.9-1.5
		c-1.1-0.6-1.7-1.5-1.6-2.6c0.1-1.5,1.4-2.5,3-2.5c0.8,0,1.6,0.3,2.1,0.7l-1,1.5c-0.3-0.2-0.7-0.4-1.2-0.4c-0.5,0-0.9,0.3-0.9,0.6
		c0,0.6,0.8,0.8,1.6,1.2c0.7,0.4,2.1,1.1,2.1,2.8C159.8,200.1,158.6,201.3,156.9,201.3z"/>
	<path d="M168.5,194.1h-2v7.2h-2v-7.2h-2v-2h5.9V194.1z"/>
	<path d="M179.2,196.6c0,2.5-2.1,4.6-4.6,4.6h-3V192h3C177.2,192,179.2,194.1,179.2,196.6z M177.2,196.6c0-1.4-1.2-2.6-2.6-2.6h-1
		v5.2h1C176.1,199.2,177.2,198.1,177.2,196.6z"/>
</g>
<g>
	<path d="M235,201.2h-5.3l0-2l3-3.4c0.5-0.6,0.5-1.4-0.1-1.8c-0.5-0.4-1.3-0.3-1.8,0.4l-1.3-1.1c1-1.6,3.1-1.9,4.4-0.7
		c1.3,1.1,1.4,3.1,0.2,4.4l-1.9,2.2h2.8V201.2z"/>
	<path d="M241.5,201.3c-1.7,0-3.1-1.4-3.1-3.1v-3.2c0-1.7,1.4-3.1,3.1-3.1c1.7,0,3.1,1.4,3.1,3.1v3.2
		C244.6,199.9,243.2,201.3,241.5,201.3z M240.4,195.1v3.2c0,0.6,0.5,1.1,1.1,1.1c0.6,0,1.1-0.5,1.1-1.1v-3.2c0-0.6-0.5-1.1-1.1-1.1
		C240.9,194,240.4,194.5,240.4,195.1z"/>
	<path d="M251.4,201.2h-2v-7.4h-1.6V192h3.6V201.2z"/>
	<path d="M261.1,198c0,1.8-1.5,3.3-3.2,3.3c-1.1,0-2.1-0.6-2.8-1.4l1.6-1.3c0.3,0.4,0.7,0.7,1.2,0.7c0.7,0,1.2-0.5,1.2-1.2
		c0-0.7-0.5-1.2-1.2-1.2c-0.3,0-0.6,0.1-0.8,0.3l-1.6-1.2l0.6-3.8h4.3v2h-2.6l-0.1,0.7c0.1,0,0.1,0,0.2,0
		C259.7,194.8,261.1,196.2,261.1,198z"/>
</g>
</svg>
