<?xml version="1.0" encoding="utf-8"?>
<!-- Generator: Adobe Illustrator 19.1.0, SVG Export Plug-In . SVG Version: 6.00 Build 0)  -->
<!DOCTYPE svg PUBLIC "-//W3C//DTD SVG 1.1//EN" "http://www.w3.org/Graphics/SVG/1.1/DTD/svg11.dtd">
<svg version="1.1" id="Layer_1" xmlns="http://www.w3.org/2000/svg" xmlns:xlink="http://www.w3.org/1999/xlink" x="0px" y="0px"
	 viewBox="0 0 235 265" enable-background="new 0 0 235 265" xml:space="preserve">
<metadata><?xpacket begin="﻿" id="W5M0MpCehiHzreSzNTczkc9d"?>
<x:xmpmeta xmlns:x="adobe:ns:meta/" x:xmptk="Adobe XMP Core 5.6-c067 79.157747, 2015/03/30-23:40:42        ">
   <rdf:RDF xmlns:rdf="http://www.w3.org/1999/02/22-rdf-syntax-ns#">
      <rdf:Description rdf:about=""/>
   </rdf:RDF>
</x:xmpmeta>
                                                                                                    
                                                                                                    
                                                                                                    
                                                                                                    
                                                                                                    
                                                                                                    
                                                                                                    
                                                                                                    
                                                                                                    
                                                                                                    
                                                                                                    
                                                                                                    
                                                                                                    
                                                                                                    
                                                                                                    
                                                                                                    
                                                                                                    
                                                                                                    
                                                                                                    
                                                                                                    
                           
<?xpacket end="w"?></metadata>
<g>
	<polygon fill="#414042" points="117.8,262.7 17.6,219.5 17.6,157.8 23.8,157.8 23.8,215.4 117.8,255.9 212.3,215.4 212.3,157.8 
		218.5,157.8 218.5,219.5 117.8,262.7 	"/>
</g>
<g>
	<polygon fill="#414042" points="118.1,4.3 218.2,47.4 218.2,109.1 212,109.1 212,51.5 118.1,11 23.5,51.5 23.5,109.1 17.3,109.1 
		17.3,47.4 118.1,4.3 	"/>
</g>
<g>
	<g>
		<path fill="#414042" d="M15.9,143.9c-6.3,0-11.5-5.2-11.5-11.5c0-6.3,5.2-11.5,11.5-11.5c3.4,0,6.3,1.5,8.7,4.1l-2.9,3.5
			c-1.7-1.6-3.5-2.7-5.7-2.7c-3.6,0-6.6,3-6.6,6.6c0,3.6,2.9,6.6,6.6,6.6c2.1,0,4.2-1,5.7-2.7l2.9,3.8
			C22.5,142.4,19.3,143.9,15.9,143.9z"/>
	</g>
	<g>
		<path fill="#414042" d="M54.8,143.7l-1.5-3.8h-8.2l-1.6,3.9h-5.4l9-22.6H51l9.2,22.6L54.8,143.7z M51.3,134.9l-2.1-5.4l-2.1,5.4
			H51.3z"/>
	</g>
	<g>
		<path fill="#414042" d="M97.2,143.7h-5v-10.9l-5,10.1h-2.7l-5-10.1v10.9h-4.9v-22.6h4.1l7.2,14.7l7.2-14.7h4.1V143.7z"/>
	</g>
	<g>
		<path fill="#414042" d="M126.6,128.1c0,3.9-3.1,7.1-7.1,7.1h-2.2v8.5h-4.9v-22.6h7.2C123.4,121.1,126.6,124.3,126.6,128.1z
			 M121.6,128.1c0-1.1-0.9-2-2.1-2h-2.2v4.2h2.2C120.7,130.2,121.6,129.3,121.6,128.1z"/>
	</g>
	<g>
		<path fill="#414042" d="M140.9,143.7v-22.6h12.5v4.9h-7.5v4.2h7v4.3h-7v9.1H140.9z"/>
	</g>
	<g>
		<path fill="#414042" d="M167.7,143.7v-22.6h4.9v22.6H167.7z"/>
	</g>
	<g>
		<path fill="#414042" d="M193.4,135.2h-0.7v8.5h-4.9v-22.6h7.2c3.9,0,7,3.1,7,7c0,2.7-1.5,5-3.6,6.2l5.6,9.4h-5.6L193.4,135.2z
			 M192.7,130.2h2.2c1.2,0,2.1-0.9,2.1-2.1c0-1.1-0.9-2-2.1-2h-2.2V130.2z"/>
	</g>
	<g>
		<path fill="#414042" d="M231.2,143.7h-13v-22.6h13v4.9h-8.1v4.2h7.5v4.3h-7.5v4.2h8.1V143.7z"/>
	</g>
</g>
<g>
	<g>
		<path fill="#414042" d="M66.7,164.8c-3.5,0-6.4-2.9-6.4-6.4s2.9-6.4,6.4-6.4c1.9,0,3.5,0.8,4.8,2.3l-1.6,2c-1-0.9-1.9-1.5-3.2-1.5
			c-2,0-3.7,1.7-3.7,3.7s1.6,3.7,3.7,3.7c1.2,0,2.3-0.5,3.2-1.5l1.6,2.1C70.4,164,68.6,164.8,66.7,164.8z"/>
	</g>
	<g>
		<path fill="#414042" d="M91.6,158.4c0,3.5-2.9,6.4-6.4,6.4c-3.5,0-6.4-2.9-6.4-6.4s2.9-6.4,6.4-6.4
			C88.8,152,91.6,154.8,91.6,158.4z M81.6,158.4c0,2,1.6,3.7,3.6,3.7c2,0,3.7-1.7,3.7-3.7c0-2-1.7-3.7-3.7-3.7
			C83.2,154.7,81.6,156.3,81.6,158.4z"/>
	</g>
	<g>
		<path fill="#414042" d="M112.4,158.4c0,3.5-2.9,6.4-6.4,6.4c-3.5,0-6.4-2.9-6.4-6.4s2.9-6.4,6.4-6.4
			C109.6,152,112.4,154.8,112.4,158.4z M102.4,158.4c0,2,1.6,3.7,3.6,3.7c2,0,3.7-1.7,3.7-3.7c0-2-1.7-3.7-3.7-3.7
			C104,154.7,102.4,156.3,102.4,158.4z"/>
	</g>
	<g>
		<path fill="#414042" d="M126.6,164.7l-2.8-5l-0.3,0.4v4.6h-2.7v-12.6h2.7v3.6l2.6-3.6h3.2l-3.7,5.1l4.3,7.5H126.6z"/>
	</g>
	<g>
		<path fill="#414042" d="M145.3,164.7H138v-12.6h7.2v2.8h-4.5v2.3h4.2v2.4h-4.2v2.3h4.5V164.7z"/>
	</g>
	<g>
		<path fill="#414042" d="M156.8,159.9h-0.4v4.8h-2.8v-12.6h4c2.2,0,3.9,1.8,3.9,3.9c0,1.5-0.8,2.8-2,3.4l3.1,5.3h-3.1L156.8,159.9z
			 M156.4,157.1h1.2c0.6,0,1.2-0.5,1.2-1.2c0-0.6-0.5-1.1-1.2-1.1h-1.2V157.1z"/>
	</g>
	<g>
		<path fill="#414042" d="M177.1,159.1v5.6h-2.7v-5.6l-4.1-7h3.3l2.1,3.8l2.1-3.8h3.3L177.1,159.1z"/>
	</g>
</g>
<g>
	<g>
		<path fill="#414042" d="M108.6,106.6h-3.1v-5.7h3.1v1h-2.1v1.4h2v0.9h-2v1.4h2.1V106.6z"/>
	</g>
	<g>
		<path fill="#414042" d="M114,106.7c-0.6,0-1.2-0.3-1.7-0.7l0.5-0.9c0.4,0.3,0.8,0.5,1.2,0.5c0.4,0,0.7-0.2,0.7-0.6
			c0-0.5-0.6-0.7-1.2-1c-0.6-0.3-1.1-0.8-1.1-1.6c0-0.9,0.8-1.5,1.8-1.5c0.5,0,0.9,0.2,1.2,0.4l-0.5,0.8c-0.2-0.1-0.5-0.3-0.8-0.3
			c-0.4,0-0.7,0.3-0.7,0.6c0,0.4,0.5,0.6,0.9,0.8c0.5,0.2,1.4,0.7,1.4,1.8C115.7,105.9,115,106.7,114,106.7z"/>
	</g>
	<g>
		<path fill="#414042" d="M122.7,101.9h-1.3v4.7h-1v-4.7h-1.3v-1h3.5V101.9z"/>
	</g>
	<g>
		<path fill="#414042" d="M130.9,103.8c0,1.6-1.3,2.8-2.8,2.8h-1.7v-5.7h1.7C129.6,100.9,130.9,102.2,130.9,103.8z M129.8,103.8
			c0-1-0.8-1.8-1.8-1.8h-0.7v3.7h0.7C129,105.6,129.8,104.8,129.8,103.8z"/>
	</g>
</g>
<g>
	<g>
		<path fill="#414042" d="M77.4,66.4h-6.4l0-2.4l3.6-4.1c0.6-0.7,0.6-1.7-0.1-2.2c-0.6-0.5-1.6-0.3-2.2,0.5l-1.6-1.3
			c1.3-1.9,3.7-2.2,5.3-0.9c1.6,1.3,1.7,3.7,0.3,5.3L74,64h3.3V66.4z"/>
	</g>
	<g>
		<path fill="#414042" d="M88.5,66.5c-2,0-3.7-1.7-3.7-3.7V59c0-2,1.7-3.7,3.7-3.7c2.1,0,3.7,1.7,3.7,3.7v3.8
			C92.2,64.8,90.6,66.5,88.5,66.5z M87.2,59v3.8c0,0.7,0.6,1.3,1.3,1.3s1.3-0.6,1.3-1.3V59c0-0.7-0.6-1.3-1.3-1.3S87.2,58.3,87.2,59
			z"/>
	</g>
	<g>
		<path fill="#414042" d="M144.5,66.4h-2.4v-8.9h-1.9v-2.1h4.3V66.4z"/>
	</g>
	<g>
		<path fill="#414042" d="M159.4,62.5c0,2.2-1.8,4-3.9,4c-1.4,0-2.5-0.8-3.3-1.7l1.9-1.6c0.3,0.4,0.8,0.8,1.4,0.8
			c0.8,0,1.5-0.6,1.5-1.4c0-0.8-0.6-1.5-1.5-1.5c-0.4,0-0.7,0.1-1,0.3l-1.9-1.4l0.7-4.6h5.2v2.4h-3.2l-0.1,0.9c0.1,0,0.2,0,0.3,0
			C157.7,58.6,159.4,60.4,159.4,62.5z"/>
	</g>
</g>
<g>
	<path fill="#414042" d="M119.3,42.8l2.3-5c0.1-0.1,0-0.3-0.1-0.4l-1.5-0.7c-0.1-0.1-0.3,0-0.4,0.1l-1.6,3.3c-0.1,0.1-0.2,0.1-0.2,0
		l-1.6-3.3c-0.1-0.1-0.2-0.2-0.4-0.1l-1.5,0.7c-0.1,0.1-0.2,0.2-0.1,0.4l2.3,5c0.1,0.1,0.1,0.4,0,0.5L94.6,90.4
		c-0.1,0.1,0,0.3,0.2,0.3h46.5c0.2,0,0.2-0.1,0.2-0.3l-22.1-47.1C119.3,43.2,119.3,42.9,119.3,42.8z M118.8,66.5l1.5,1.7
		c0.1,0.1,0.3,0.1,0.4,0l2.2-2.4c0.1-0.1,0.3-0.1,0.4,0l2.2,2.4c0.1,0.1,0.3,0.1,0.4,0l1.5-1.6c0.1-0.1,0.3-0.1,0.3,0.1L138,88.2
		c0.1,0.1,0,0.3-0.2,0.3h-10.3c-0.2,0-0.4-0.1-0.5-0.1c-7.7-4.6-8.4-16.9-8.4-21.7C118.6,66.4,118.7,66.4,118.8,66.5z M118.1,45.9
		l8.8,18.7c0.1,0.1,0,0.4-0.1,0.5l-0.9,0.9c-0.1,0.1-0.3,0.1-0.4,0l-2.2-2.4c-0.1-0.1-0.3-0.1-0.4,0l-2.2,2.4
		c-0.1,0.1-0.3,0.1-0.4,0l-2.2-2.4c-0.1-0.1-0.3-0.1-0.4,0l-2.2,2.4c-0.1,0.1-0.3,0.1-0.4,0l-2.2-2.4c-0.1-0.1-0.3-0.1-0.4,0
		l-2.2,2.4c-0.1,0.1-0.3,0.1-0.4,0l-0.7-0.8c-0.1-0.1-0.1-0.3-0.1-0.5l8.8-18.8C117.9,45.8,118.1,45.8,118.1,45.9z M108.5,66.6
		l1.4,1.5c0.1,0.1,0.3,0.1,0.4,0l2.2-2.4c0.1-0.1,0.3-0.1,0.4,0l2.2,2.4c0.1,0.1,0.3,0.1,0.4,0l1.1-1.2c0.1-0.1,0.2-0.1,0.2,0.1
		l-3.4,21.2c0,0.2-0.2,0.3-0.3,0.3H98.2c-0.2,0-0.2-0.1-0.2-0.3l10.1-21.5C108.2,66.5,108.3,66.5,108.5,66.6z"/>
</g>
<g>
	<g>
		<path fill="#414042" d="M137.9,201.1v-4.4h2.4v0.8h-1.6v1.1h1.5v0.7h-1.5v1.9H137.9z"/>
	</g>
	<g>
		<path fill="#414042" d="M147.6,198.9c0,1.2-1,2.3-2.3,2.3c-1.2,0-2.3-1-2.3-2.3c0-1.2,1-2.3,2.3-2.3
			C146.5,196.6,147.6,197.6,147.6,198.9z M143.8,198.9c0,0.8,0.6,1.5,1.5,1.5c0.8,0,1.5-0.7,1.5-1.5s-0.7-1.5-1.5-1.5
			C144.5,197.4,143.8,198.1,143.8,198.9z"/>
	</g>
	<g>
		<path fill="#414042" d="M151.6,199.3h-0.3v1.8h-0.8v-4.4h1.4c0.7,0,1.3,0.6,1.3,1.3c0,0.6-0.3,1-0.8,1.2l1.1,1.9h-0.9L151.6,199.3
			z M151.3,198.5h0.6c0.3,0,0.5-0.2,0.5-0.6c0-0.3-0.2-0.5-0.5-0.5h-0.6V198.5z"/>
	</g>
	<g>
		<path fill="#414042" d="M160.2,201.1h-0.6l-0.7-2.7l-0.7,2.7h-0.6l-1.2-4.4h0.9l0.8,2.7l0.7-2.7h0.5l0.7,2.7l0.8-2.7h0.9
			L160.2,201.1z"/>
	</g>
	<g>
		<path fill="#414042" d="M167,201.1l-0.3-0.8h-1.8l-0.3,0.8h-0.9l1.8-4.4h0.6l1.8,4.4L167,201.1z M166.4,199.5l-0.6-1.5l-0.6,1.5
			H166.4z"/>
	</g>
	<g>
		<path fill="#414042" d="M171.9,199.3h-0.3v1.8h-0.8v-4.4h1.4c0.7,0,1.3,0.6,1.3,1.3c0,0.6-0.3,1-0.8,1.2l1.1,1.9h-0.9L171.9,199.3
			z M171.6,198.5h0.6c0.3,0,0.5-0.2,0.5-0.6c0-0.3-0.2-0.5-0.5-0.5h-0.6V198.5z"/>
	</g>
	<g>
		<path fill="#414042" d="M180.2,198.9c0,1.2-1,2.2-2.2,2.2h-1.3v-4.4h1.3C179.2,196.7,180.2,197.7,180.2,198.9z M179.4,198.9
			c0-0.8-0.6-1.4-1.4-1.4h-0.6v2.9h0.6C178.8,200.3,179.4,199.7,179.4,198.9z"/>
	</g>
</g>
<g>
	<rect x="54.1" y="189.8" fill="#414042" width="44.8" height="1"/>
</g>
<g>
	<rect x="54.1" y="207.1" fill="#414042" width="44.8" height="1"/>
</g>
<g>
	<rect x="136.6" y="189.8" fill="#414042" width="44.8" height="1"/>
</g>
<g>
	<rect x="136.6" y="207.1" fill="#414042" width="44.8" height="1"/>
</g>
<g>
	<g>
		<path fill="#414042" d="M63.7,199.3h-0.3v1.8h-0.8v-4.4H64c0.7,0,1.3,0.6,1.3,1.3c0,0.6-0.3,1-0.8,1.2l1.1,1.9h-0.9L63.7,199.3z
			 M63.4,198.5H64c0.3,0,0.5-0.2,0.5-0.6c0-0.3-0.2-0.5-0.5-0.5h-0.6V198.5z"/>
	</g>
	<g>
		<path fill="#414042" d="M70.9,201.1h-2.5v-4.4h2.5v0.8h-1.7v1.1h1.6v0.7h-1.6v1.1h1.7V201.1z"/>
	</g>
	<g>
		<path fill="#414042" d="M77.1,201.1l-0.3-0.8h-1.8l-0.3,0.8h-0.9l1.8-4.4h0.6l1.8,4.4L77.1,201.1z M76.4,199.5l-0.6-1.5l-0.6,1.5
			H76.4z"/>
	</g>
	<g>
		<path fill="#414042" d="M84.4,198.9c0,1.2-1,2.2-2.2,2.2h-1.3v-4.4h1.3C83.4,196.7,84.4,197.7,84.4,198.9z M83.6,198.9
			c0-0.8-0.6-1.4-1.4-1.4h-0.6v2.9h0.6C83,200.3,83.6,199.7,83.6,198.9z"/>
	</g>
	<g>
		<path fill="#414042" d="M89.1,199.1v2h-0.8v-2l-1.4-2.4h1l0.8,1.5l0.9-1.5h1L89.1,199.1z"/>
	</g>
</g>
<g>
	<g>
		<path fill="#414042" d="M123.9,203.1l1.8,2.2l-3.5,2.9l-1-1.2c-1.3,0.9-2.9,1.5-4.5,1.5c-4,0-7.3-3.3-7.3-7.3c0-2.1,0.9-4,2.3-5.4
			c-0.8-1-1.2-2.3-1.2-3.7c0-3.4,2.8-6.2,6.2-6.2c3.4,0,6.3,2.8,6.3,6.2c0,2.5-1.5,4.7-3.7,5.7l1.4,1.6l1.4-2.9l4.1,2L123.9,203.1z
			 M118.3,203.5l-3.6-4.3c-0.5,0.5-0.7,1.2-0.7,1.9c0,1.8,1.4,2.7,2.9,2.7C117.3,203.9,117.8,203.8,118.3,203.5z M115.1,192
			c0,1,0.7,1.7,1.7,1.7c1,0,1.7-0.8,1.7-1.7c0-0.9-0.7-1.7-1.7-1.7C115.8,190.3,115.1,191.1,115.1,192z"/>
	</g>
</g>
</svg>
