<?xml version="1.0" encoding="utf-8"?>
<!-- Generator: Adobe Illustrator 19.2.0, SVG Export Plug-In . SVG Version: 6.00 Build 0)  -->
<!DOCTYPE svg PUBLIC "-//W3C//DTD SVG 1.1//EN" "http://www.w3.org/Graphics/SVG/1.1/DTD/svg11.dtd">
<svg version="1.1" id="Layer_1" xmlns="http://www.w3.org/2000/svg" xmlns:xlink="http://www.w3.org/1999/xlink" x="0px" y="0px"
	 viewBox="0 0 400 500" style="enable-background:new 0 0 400 500;" xml:space="preserve">
<metadata><?xpacket begin="﻿" id="W5M0MpCehiHzreSzNTczkc9d"?>
<x:xmpmeta xmlns:x="adobe:ns:meta/" x:xmptk="Adobe XMP Core 5.6-c111 79.158366, 2015/09/25-01:12:00        ">
   <rdf:RDF xmlns:rdf="http://www.w3.org/1999/02/22-rdf-syntax-ns#">
      <rdf:Description rdf:about=""/>
   </rdf:RDF>
</x:xmpmeta>
                                                                                                    
                                                                                                    
                                                                                                    
                                                                                                    
                                                                                                    
                                                                                                    
                                                                                                    
                                                                                                    
                                                                                                    
                                                                                                    
                                                                                                    
                                                                                                    
                                                                                                    
                                                                                                    
                                                                                                    
                                                                                                    
                                                                                                    
                                                                                                    
                                                                                                    
                                                                                                    
                           
<?xpacket end="w"?></metadata>
<style type="text/css">
	.st0{fill:none;stroke:#4D5147;stroke-width:13.5;stroke-miterlimit:10;}
	.st1{fill:#FFFFFF;}
	.st2{fill:none;stroke:#231F20;stroke-width:10.5599;stroke-miterlimit:10;}
	.st3{fill:#231F20;}
	.st4{fill:none;stroke:#4D5147;stroke-width:27;stroke-miterlimit:10;}
</style>
<polygon class="st0" points="350.1,373.1 202.4,454.4 49.9,373.1 49.9,70.8 350.1,70.8 "/>
<g>
	<polygon class="st1" points="244.5,298.2 202.4,227.3 160.3,298.2 	"/>
</g>
<polyline class="st2" points="181.9,183.5 252,301.8 152.8,301.8 222.9,183.5 "/>
<g>
	<polygon class="st3" points="222.4,298.4 202.4,264.6 182.4,298.4 	"/>
</g>
<g>
	<path class="st3" d="M143.7,131.7c-3.9,1.9-8.7,0.3-10.6-3.5c-1.9-3.9-0.3-8.7,3.5-10.6c2.1-1,4.3-1,6.6-0.1l-0.7,3.1
		c-1.5-0.5-3-0.6-4.4,0.1c-2.2,1.1-3.1,3.8-2,6.1c1.1,2.2,3.8,3.1,6.1,2c1.3-0.6,2.3-1.9,2.7-3.4l3,1.5
		C147.3,128.7,145.8,130.6,143.7,131.7z"/>
	<path class="st3" d="M165.7,123l-1.8-2.2l-5.4,1.7l-0.2,2.9l-3.5,1.1l1.2-16.7l2.5-0.8l10.7,12.9L165.7,123z M161.5,118l-2.5-3.1
		l-0.3,4L161.5,118z"/>
	<path class="st3" d="M191.2,118.2l-3.4,0.5l-1.1-7.4l-2.4,7.4l-1.8,0.3l-4.4-6.4l1.1,7.4l-3.4,0.5l-2.2-15.4l2.8-0.4l6.3,9.4
		l3.5-10.7l2.8-0.4L191.2,118.2z"/>
	<path class="st3" d="M208.5,107.3c0,2.7-2.2,4.8-4.9,4.8l-1.5,0l-0.1,5.9l-3.4-0.1l0.2-15.5l4.9,0.1
		C206.4,102.5,208.6,104.7,208.5,107.3z M205.1,107.3c0-0.8-0.6-1.4-1.4-1.4l-1.5,0l0,2.9l1.5,0
		C204.5,108.7,205.1,108.1,205.1,107.3z"/>
	<path class="st3" d="M215.3,118.5l1.9-15.4l8.5,1.1l-0.4,3.4l-5.1-0.6l-0.4,2.9l4.8,0.6l-0.4,3l-4.8-0.6l-0.8,6.2L215.3,118.5z"/>
	<path class="st3" d="M230.7,120.9l3.5-15.2l3.3,0.7l-3.5,15.2L230.7,120.9z"/>
	<path class="st3" d="M246.8,119.3l-0.4-0.2l-1.9,5.6l-3.2-1.1l5.1-14.7l4.7,1.6c2.5,0.9,3.9,3.6,3,6.1c-0.6,1.7-2.1,2.9-3.7,3.2
		l1.5,7.4l-3.7-1.3L246.8,119.3z M247.4,115.9l1.4,0.5c0.8,0.3,1.6-0.1,1.8-0.9c0.3-0.7-0.2-1.5-0.9-1.8l-1.4-0.5L247.4,115.9z"/>
	<path class="st3" d="M266,134l-8-4l6.9-13.9l8,4l-1.5,3l-5-2.5l-1.3,2.6l4.6,2.3l-1.3,2.7l-4.6-2.3l-1.3,2.6l5,2.5L266,134z"/>
</g>
<g>
	<g>
		<path class="st3" d="M150.1,390.7l-1-7l-0.5,0.4l-2.1,5.3l-3.1-1.2l5.6-14.5l3.1,1.2l-1.6,4.1l4.6-3l3.7,1.4l-6.6,4.2l1.6,10.5
			L150.1,390.7z"/>
		<path class="st3" d="M161.6,394.5l4.1-15l3.2,0.9l-4.1,15L161.6,394.5z"/>
		<path class="st3" d="M184.1,386.9l-3.3-0.6l-2.1,12l-3.3-0.6l2.1-12l-3.2-0.6l0.6-3.4l9.8,1.7L184.1,386.9z"/>
		<path class="st3" d="M197.9,400.2c-4.3-0.2-7.8-3.8-7.6-8.2c0.2-4.3,3.8-7.8,8.1-7.6c2.3,0.1,4.3,1.2,5.9,3l-2.1,2.4
			c-1.1-1.2-2.3-2-3.9-2c-2.5-0.1-4.6,1.9-4.7,4.4c-0.1,2.5,1.9,4.6,4.4,4.7c1.4,0.1,2.9-0.6,4-1.7l1.9,2.7
			C202.5,399.4,200.3,400.3,197.9,400.2z"/>
		<path class="st3" d="M222.4,383.3l1.7,15.4l-3.3,0.4l-0.7-6.2l-4.4,0.5l0.7,6.2l-3.3,0.4l-1.7-15.4l3.3-0.4l0.7,6.2l4.4-0.5
			l-0.7-6.2L222.4,383.3z"/>
		<path class="st3" d="M241.4,395.1l-8.7,2.1l-3.6-15.1l8.7-2.1l0.8,3.3l-5.4,1.3l0.7,2.8l5-1.2l0.7,2.9l-5,1.2l0.7,2.8l5.4-1.3
			L241.4,395.1z"/>
		<path class="st3" d="M255.8,373.6l5.6,14.5l-2.5,0.9l-9.1-6.3l3.3,8.5l-3.2,1.2l-5.6-14.5l2.4-0.9l9.2,6.3l-3.3-8.6L255.8,373.6z"
			/>
	</g>
</g>
<path class="st4" d="M289.1,319.9c-20.2,25.6-51.6,42.1-86.7,42.1s-66.5-16.5-86.7-42.1C100.9,301.1,92,277.4,92,251.6
	c0-25.8,8.8-49.5,23.7-68.3c20.2-25.6,51.5-42.1,86.7-42.1s66.5,16.5,86.7,42.1"/>
<g>
	<path d="M160.5,223.7h-4.3v-7.4h4.3v1.6h-2.6v1.4h2.5v1.4h-2.5v1.4h2.6V223.7z"/>
	<path d="M165.4,223.7c-0.8,0-1.5-0.3-2.3-1l0.8-1.4c0.5,0.4,1,0.6,1.5,0.6c0.4,0,0.7-0.2,0.7-0.5c0-0.6-0.8-0.8-1.5-1.2
		c-0.9-0.5-1.4-1.2-1.3-2.1c0.1-1.2,1.1-2,2.4-2c0.6,0,1.2,0.3,1.7,0.6l-0.8,1.2c-0.2-0.2-0.6-0.4-1-0.4c-0.4,0-0.7,0.2-0.7,0.5
		c0,0.5,0.6,0.7,1.2,1c0.6,0.3,1.7,0.9,1.7,2.3C167.7,222.7,166.8,223.7,165.4,223.7z"/>
	<path d="M174.7,217.9h-1.6v5.8h-1.6v-5.8h-1.6v-1.6h4.8V217.9z"/>
	<path d="M183.3,220c0,2-1.7,3.7-3.7,3.7h-2.4v-7.4h2.4C181.7,216.3,183.3,217.9,183.3,220z M181.7,220c0-1.1-0.9-2.1-2.1-2.1h-0.8
		v4.2h0.8C180.8,222,181.7,221.1,181.7,220z"/>
</g>
<g>
	<path d="M228.1,223.7h-4.3l0-1.6l2.4-2.7c0.4-0.5,0.4-1.1,0-1.4c-0.4-0.3-1-0.2-1.5,0.3l-1-0.9c0.8-1.3,2.5-1.5,3.6-0.6
		c1.1,0.9,1.1,2.5,0.2,3.6l-1.5,1.7h2.2V223.7z"/>
	<path d="M233.4,223.7c-1.4,0-2.5-1.1-2.5-2.5v-2.5c0-1.4,1.1-2.5,2.5-2.5c1.4,0,2.5,1.1,2.5,2.5v2.5
		C235.9,222.6,234.7,223.7,233.4,223.7z M232.5,218.7v2.5c0,0.5,0.4,0.9,0.9,0.9c0.5,0,0.9-0.4,0.9-0.9v-2.5c0-0.5-0.4-0.9-0.9-0.9
		C232.9,217.8,232.5,218.2,232.5,218.7z"/>
	<path d="M241.3,223.7h-1.6v-6h-1.2v-1.4h2.9V223.7z"/>
	<path d="M249.1,221.1c0,1.5-1.2,2.7-2.6,2.7c-0.9,0-1.7-0.5-2.2-1.2l1.3-1.1c0.2,0.3,0.5,0.5,1,0.5c0.5,0,1-0.4,1-1
		c0-0.6-0.4-1-1-1c-0.2,0-0.5,0.1-0.6,0.2l-1.2-0.9l0.5-3.1h3.5v1.6h-2.1l-0.1,0.6c0,0,0.1,0,0.2,0
		C247.9,218.4,249.1,219.6,249.1,221.1z"/>
</g>
</svg>
