<?xml version="1.0" encoding="utf-8"?>
<!-- Generator: Adobe Illustrator 19.1.0, SVG Export Plug-In . SVG Version: 6.00 Build 0)  -->
<!DOCTYPE svg PUBLIC "-//W3C//DTD SVG 1.1//EN" "http://www.w3.org/Graphics/SVG/1.1/DTD/svg11.dtd">
<svg version="1.1" id="Layer_1" xmlns="http://www.w3.org/2000/svg" xmlns:xlink="http://www.w3.org/1999/xlink" x="0px" y="0px"
	 viewBox="0 0 400 500" enable-background="new 0 0 400 500" xml:space="preserve">
<metadata><?xpacket begin="﻿" id="W5M0MpCehiHzreSzNTczkc9d"?>
<x:xmpmeta xmlns:x="adobe:ns:meta/" x:xmptk="Adobe XMP Core 5.6-c067 79.157747, 2015/03/30-23:40:42        ">
   <rdf:RDF xmlns:rdf="http://www.w3.org/1999/02/22-rdf-syntax-ns#">
      <rdf:Description rdf:about=""/>
   </rdf:RDF>
</x:xmpmeta>
                                                                                                    
                                                                                                    
                                                                                                    
                                                                                                    
                                                                                                    
                                                                                                    
                                                                                                    
                                                                                                    
                                                                                                    
                                                                                                    
                                                                                                    
                                                                                                    
                                                                                                    
                                                                                                    
                                                                                                    
                                                                                                    
                                                                                                    
                                                                                                    
                                                                                                    
                                                                                                    
                           
<?xpacket end="w"?></metadata>
<g>
	<path fill="#4D5147" d="M203,498L4.8,392.3V2.6h390.4v389.6L203,498z M21.6,382.2l181.3,96.7l175.5-96.6V19.4H21.6V382.2z"/>
</g>
<g>
	<g>
		<polygon fill="#FFFFFF" points="250.9,294.9 201.9,212.3 152.9,294.9 		"/>
	</g>
</g>
<g>
	<path fill="#353734" d="M270.4,305.2H133.4l61.4-103.6l-22-37.1l10.6-6.3l18.5,31.3l18.5-31.3l10.6,6.3l-22,37.1L270.4,305.2z
		 M154.9,293h93.9l-47-79.3L154.9,293z"/>
</g>
<g>
	<g>
		<polygon fill="#353734" points="225.2,295.2 201.9,255.8 178.6,295.2 		"/>
	</g>
</g>
<g>
	<path fill="#353734" d="M129.3,85.5c-4.9,2.4-10.9,0.4-13.3-4.4c-2.4-4.9-0.4-10.9,4.4-13.3c2.6-1.3,5.4-1.3,8.3-0.2l-0.9,3.9
		c-1.9-0.6-3.7-0.8-5.5,0.1c-2.8,1.4-3.9,4.8-2.5,7.6c1.4,2.8,4.8,3.9,7.6,2.5c1.6-0.8,2.8-2.4,3.4-4.3l3.7,1.8
		C133.8,81.8,131.9,84.2,129.3,85.5z"/>
	<path fill="#353734" d="M156.9,74.6l-2.3-2.8l-6.8,2.1l-0.3,3.6l-4.4,1.4l1.5-20.9l3.2-1l13.5,16.2L156.9,74.6z M151.7,68.3
		l-3.1-3.9l-0.3,5L151.7,68.3z"/>
	<path fill="#353734" d="M189,68.6l-4.3,0.6l-1.3-9.3l-3,9.3l-2.3,0.3l-5.5-8.1l1.3,9.3l-4.2,0.6L167,52l3.5-0.5l7.9,11.7l4.4-13.5
		l3.5-0.5L189,68.6z"/>
	<path fill="#353734" d="M210.7,54.9c-0.1,3.4-2.8,6-6.2,6l-1.9,0l-0.1,7.4l-4.3-0.1l0.3-19.5l6.2,0.1
		C208.1,48.9,210.7,51.6,210.7,54.9z M206.4,54.9c0-1-0.8-1.8-1.8-1.8l-1.9,0l-0.1,3.6l1.9,0C205.6,56.7,206.4,55.9,206.4,54.9z"/>
	<path fill="#353734" d="M219.2,69l2.4-19.3l10.7,1.3l-0.5,4.2l-6.5-0.8l-0.5,3.6l6,0.8l-0.5,3.7l-6-0.8l-1,7.8L219.2,69z"/>
	<path fill="#353734" d="M238.5,72l4.3-19l4.1,0.9l-4.3,19L238.5,72z"/>
	<path fill="#353734" d="M258.7,70l-0.5-0.2l-2.4,7l-4-1.4l6.4-18.4l5.9,2c3.2,1.1,4.8,4.5,3.8,7.7c-0.8,2.2-2.6,3.6-4.7,4l1.9,9.3
		l-4.6-1.6L258.7,70z M259.5,65.7l1.8,0.6c0.9,0.3,2-0.1,2.3-1.1c0.3-0.9-0.2-1.9-1.1-2.3l-1.8-0.6L259.5,65.7z"/>
	<path fill="#353734" d="M282.8,88.4l-10.1-5l8.7-17.5l10.1,5l-1.9,3.8l-6.2-3.1l-1.6,3.2l5.8,2.9l-1.7,3.3l-5.8-2.9l-1.6,3.2
		l6.2,3.1L282.8,88.4z"/>
</g>
<g>
	<path fill="#353734" d="M126.1,406.2c-5-2.3-7.1-8.2-4.9-13.1c2.3-5,8.2-7.1,13.1-4.9c2.6,1.2,4.4,3.4,5.3,6.4l-3.6,1.7
		c-0.8-1.9-1.7-3.4-3.5-4.2c-2.9-1.3-6.2,0-7.5,2.8c-1.3,2.8-0.1,6.2,2.8,7.5c1.7,0.8,3.6,0.7,5.4,0l0.9,4.1
		C131.8,407.4,128.8,407.4,126.1,406.2z"/>
	<path fill="#353734" d="M164.2,408.8c-1.5,5.3-7,8.3-12.2,6.8c-5.2-1.5-8.3-7-6.8-12.2c1.5-5.3,7-8.3,12.2-6.8
		C162.7,398,165.7,403.5,164.2,408.8z M149.2,404.5c-0.9,3,0.8,6.1,3.9,7c3,0.8,6.2-0.9,7-3.9c0.8-3-0.9-6.2-3.9-7
		C153.2,399.8,150.1,401.5,149.2,404.5z"/>
	<path fill="#353734" d="M193.8,412.8c-0.6,5.4-5.5,9.4-10.9,8.8c-5.4-0.6-9.4-5.5-8.8-10.9c0.6-5.4,5.5-9.4,10.9-8.8
		C190.5,402.5,194.4,407.4,193.8,412.8z M178.4,411.2c-0.3,3.1,1.9,5.9,5,6.2c3.1,0.3,5.9-2,6.2-5c0.3-3.1-2-5.9-5-6.2
		C181.5,405.8,178.7,408,178.4,411.2z"/>
	<path fill="#353734" d="M213.3,422.2l-4.7-7.6l-0.4,0.7l0.3,7.1l-4.2,0.2l-0.8-19.5l4.2-0.2l0.2,5.6l3.8-5.8l5-0.2l-5.4,8.1
		l7.2,11.3L213.3,422.2z"/>
	<path fill="#353734" d="M240.1,418.9l-11.1,1.9l-3.3-19.2l11.1-1.9l0.7,4.2l-6.9,1.2l0.6,3.6l6.4-1.1l0.6,3.7l-6.4,1.1l0.6,3.6
		l6.9-1.2L240.1,418.9z"/>
	<path fill="#353734" d="M253.2,408l-0.6,0.2l2.1,7.1l-4.1,1.2l-5.6-18.7l5.9-1.8c3.2-1,6.6,0.8,7.5,4c0.7,2.2,0,4.5-1.5,6l6.9,6.4
		l-4.7,1.4L253.2,408z M251.4,404.1l1.8-0.6c1-0.3,1.5-1.3,1.2-2.3c-0.3-0.9-1.3-1.5-2.3-1.2l-1.8,0.6L251.4,404.1z"/>
	<path fill="#353734" d="M279.7,396.6l3.6,7.8l-3.9,1.8l-3.6-7.8l-10.3-7.2l4.7-2.2l5.5,4l0.5-6.8l4.7-2.2L279.7,396.6z"/>
</g>
<g>
	<path fill="#4D5147" d="M201.9,380.1c-44.4,0-85.7-20-113.2-54.9c-20.2-25.7-30.9-56.5-30.9-89.2c0-32.7,10.7-63.6,30.9-89.2
		c27.6-34.9,68.8-55,113.3-55c44.4,0,85.7,20,113.3,55l-24.7,19.5c-21.6-27.3-53.8-43-88.6-43s-67,15.7-88.6,43
		c-15.8,20-24.1,44.2-24.1,69.7c0,25.6,8.4,49.7,24.2,69.8c21.5,27.3,53.8,43,88.6,43s67-15.7,88.6-43l24.7,19.5
		C287.6,360.1,246.3,380.1,201.9,380.1z"/>
</g>
<g>
	<path fill="#4D5147" d="M139.2,206.9h-6.5v-11.3h6.5v2.5h-4v2.1h3.7v2.2h-3.7v2.1h4V206.9z"/>
	<path fill="#4D5147" d="M146.6,207c-1.2,0-2.4-0.5-3.6-1.5l1.2-2.2c0.8,0.6,1.6,0.9,2.2,0.9c0.6,0,1-0.3,1-0.8
		c0-0.9-1.2-1.2-2.3-1.8c-1.4-0.8-2.1-1.9-2-3.1c0.1-1.9,1.7-3.1,3.7-3c1,0,1.9,0.4,2.6,0.9l-1.2,1.9c-0.3-0.2-0.9-0.5-1.5-0.5
		c-0.7,0-1.1,0.3-1.1,0.8c0,0.7,1,1,1.9,1.5c0.9,0.4,2.6,1.4,2.6,3.5C150.2,205.5,148.7,207,146.6,207z"/>
	<path fill="#4D5147" d="M160.7,198.1h-2.4v8.8h-2.4v-8.8h-2.4v-2.5h7.2V198.1z"/>
	<path fill="#4D5147" d="M173.9,201.3c0,3.1-2.5,5.6-5.6,5.6h-3.7v-11.3h3.7C171.3,195.6,173.9,198.2,173.9,201.3z M171.4,201.3
		c0-1.7-1.4-3.2-3.1-3.2H167v6.3h1.2C170,204.4,171.4,203,171.4,201.3z"/>
</g>
<g>
	<path fill="#4D5147" d="M242,206.9h-6.5l0-2.5l3.6-4.1c0.6-0.7,0.6-1.7-0.1-2.2c-0.7-0.5-1.6-0.3-2.2,0.5l-1.6-1.3
		c1.3-1.9,3.8-2.3,5.4-0.9c1.6,1.4,1.7,3.8,0.3,5.4l-2.3,2.6h3.4V206.9z"/>
	<path fill="#4D5147" d="M250,207c-2.1,0-3.8-1.7-3.8-3.8v-3.9c0-2.1,1.7-3.8,3.8-3.8c2.1,0,3.8,1.7,3.8,3.8v3.9
		C253.8,205.3,252.1,207,250,207z M248.7,199.3v3.9c0,0.7,0.6,1.4,1.3,1.4c0.7,0,1.3-0.6,1.3-1.4v-3.9c0-0.7-0.6-1.4-1.3-1.4
		C249.3,198,248.7,198.6,248.7,199.3z"/>
	<path fill="#4D5147" d="M262.2,206.9h-2.5v-9.1h-1.9v-2.2h4.4V206.9z"/>
	<path fill="#4D5147" d="M273.9,202.9c0,2.2-1.8,4-3.9,4c-1.4,0-2.6-0.8-3.4-1.8l1.9-1.6c0.3,0.5,0.8,0.8,1.4,0.8
		c0.8,0,1.5-0.6,1.5-1.5c0-0.9-0.7-1.5-1.5-1.5c-0.4,0-0.7,0.1-1,0.3l-1.9-1.4l0.7-4.7h5.3v2.5h-3.2l-0.1,0.9c0.1,0,0.2,0,0.3,0
		C272.2,199,273.9,200.7,273.9,202.9z"/>
</g>
</svg>
