<?xml version="1.0" encoding="utf-8"?>
<!-- Generator: Adobe Illustrator 19.1.0, SVG Export Plug-In . SVG Version: 6.00 Build 0)  -->
<!DOCTYPE svg PUBLIC "-//W3C//DTD SVG 1.1//EN" "http://www.w3.org/Graphics/SVG/1.1/DTD/svg11.dtd">
<svg version="1.1" id="Layer_1" xmlns="http://www.w3.org/2000/svg" xmlns:xlink="http://www.w3.org/1999/xlink" x="0px" y="0px"
	 viewBox="0 0 40 40" enable-background="new 0 0 40 40" xml:space="preserve">
<metadata><?xpacket begin="﻿" id="W5M0MpCehiHzreSzNTczkc9d"?>
<x:xmpmeta xmlns:x="adobe:ns:meta/" x:xmptk="Adobe XMP Core 5.6-c067 79.157747, 2015/03/30-23:40:42        ">
   <rdf:RDF xmlns:rdf="http://www.w3.org/1999/02/22-rdf-syntax-ns#">
      <rdf:Description rdf:about=""/>
   </rdf:RDF>
</x:xmpmeta>
                                                                                                    
                                                                                                    
                                                                                                    
                                                                                                    
                                                                                                    
                                                                                                    
                                                                                                    
                                                                                                    
                                                                                                    
                                                                                                    
                                                                                                    
                                                                                                    
                                                                                                    
                                                                                                    
                                                                                                    
                                                                                                    
                                                                                                    
                                                                                                    
                                                                                                    
                                                                                                    
                           
<?xpacket end="w"?></metadata>
<g>
	<path fill="#475531" d="M9.4,4.7L8.3,4.7c-0.1,0-0.2,0.1-0.2,0.2L7.9,8.1c0,0.1-0.1,0.2-0.2,0.2L4.5,8.5c-0.1,0-0.2,0.1-0.2,0.2
		l0.1,1.1c0,0.1,0.1,0.2,0.2,0.2l4.6-0.2c0.1,0,0.2-0.1,0.2-0.2l0.2-4.6C9.6,4.8,9.6,4.7,9.4,4.7z"/>
	<path fill="#475531" d="M10.8,33.4l-2.2-0.1c-0.1,0-0.1-0.1-0.1-0.2l7.5-7.5c0.1-0.1,0.2-0.1,0.3,0c1.1,0.8,2.4,1.2,3.8,1.2
		c1.4,0,2.7-0.5,3.8-1.2c0.1-0.1,0.2-0.1,0.3,0l7.5,7.5c0.1,0.1,0.1,0.1-0.1,0.2l-2.2,0.1c-0.1,0-0.2,0.1-0.2,0.2l0.1,1.1
		c0,0.1,0.1,0.2,0.2,0.2l4.6-0.2c0.1,0,0.2-0.1,0.2-0.2l0.2-4.6c0-0.1-0.1-0.2-0.2-0.2l-1.1-0.1c-0.1,0-0.2,0.1-0.2,0.2L32.9,32
		c0,0.1-0.1,0.1-0.2,0.1l-7.5-7.5c-0.1-0.1-0.1-0.2,0-0.3c0.8-1.1,1.2-2.4,1.2-3.8c0-1.4-0.5-2.7-1.2-3.8c-0.1-0.1-0.1-0.2,0-0.3
		l3.7-3.7c0.1-0.1,0.2-0.1,0.3-0.1l3.7,0.2c0.1,0,0.2-0.1,0.2-0.2l0.1-1.1c0-0.1-0.1-0.2-0.2-0.2l-3.3-0.2c-0.1,0-0.2-0.1-0.2-0.2
		l-0.2-3.3c0-0.1-0.1-0.2-0.2-0.2l-1.1,0.1c-0.1,0-0.2,0.1-0.2,0.2l0.2,3.6c0,0.1-0.1,0.3-0.1,0.3l-3.7,3.8c-0.1,0.1-0.2,0.1-0.3,0
		c-1.1-0.8-2.4-1.2-3.8-1.2c-1.4,0-2.7,0.5-3.8,1.2c-0.1,0.1-0.2,0.1-0.3,0l-3.7-3.7c-0.1-0.1-0.1-0.2-0.1-0.3l0.2-3.7
		c0-0.1-0.1-0.2-0.2-0.2l-1.1-0.1c-0.1,0-0.2,0.1-0.2,0.2l-0.2,3.3c0,0.1-0.1,0.2-0.2,0.2l-3.3,0.2c-0.1,0-0.2,0.1-0.2,0.2l0.1,1.1
		c0,0.1,0.1,0.2,0.2,0.2l3.6-0.2c0.1,0,0.3,0.1,0.3,0.1l3.7,3.7c0.1,0.1,0.1,0.2,0,0.3c-0.8,1.1-1.2,2.4-1.2,3.8
		c0,1.4,0.5,2.7,1.2,3.8c0.1,0.1,0.1,0.2,0,0.3l-7.5,7.5c-0.1,0.1-0.2,0.1-0.2-0.1l-0.1-2.2c0-0.1-0.1-0.2-0.2-0.2l-1.1,0.1
		c-0.1,0-0.2,0.1-0.2,0.2l0.2,4.6c0,0.1,0.1,0.2,0.2,0.2l4.6,0.2c0.1,0,0.2-0.1,0.2-0.2l0.1-1.1C11,33.5,10.9,33.4,10.8,33.4z
		 M17.4,24.6c-0.1-0.1-0.1-0.2,0-0.3l2.6-2.6c0.1-0.1,0.2-0.1,0.3,0l2.6,2.6c0.1,0.1,0.1,0.2,0,0.3c-0.8,0.5-1.7,0.8-2.7,0.8
		C19.1,25.4,18.2,25.1,17.4,24.6z M24.1,23.2c-0.1,0.1-0.2,0.1-0.3,0l-2.6-2.6c-0.1-0.1-0.1-0.2,0-0.3l2.6-2.6
		c0.1-0.1,0.2-0.1,0.3,0c0.5,0.8,0.8,1.7,0.8,2.7C24.9,21.5,24.6,22.4,24.1,23.2z M22.8,16.5c0.1,0.1,0.1,0.2,0,0.3l-2.6,2.6
		c-0.1,0.1-0.2,0.1-0.3,0l-2.6-2.6c-0.1-0.1-0.1-0.2,0-0.3c0.8-0.5,1.7-0.8,2.7-0.8C21.1,15.6,22,15.9,22.8,16.5z M16,17.8
		c0.1-0.1,0.2-0.1,0.3,0l2.6,2.6c0.1,0.1,0.1,0.2,0,0.3l-2.6,2.6c-0.1,0.1-0.2,0.1-0.3,0c-0.5-0.8-0.8-1.7-0.8-2.7
		C15.2,19.5,15.5,18.6,16,17.8z"/>
	<path fill="#475531" d="M35.9,9.8L36,8.7c0-0.1-0.1-0.2-0.2-0.2l-3.3-0.2c-0.1,0-0.2-0.1-0.2-0.2l-0.2-3.3c0-0.1-0.1-0.2-0.2-0.2
		l-1.1,0.1c-0.1,0-0.2,0.1-0.2,0.2l0.2,4.6c0,0.1,0.1,0.2,0.2,0.2l4.6,0.2C35.8,10,35.9,9.9,35.9,9.8z"/>
</g>
</svg>
